<mxfile host="app.diagrams.net" modified="2021-09-21T17:59:17.439Z" agent="5.0 (Windows NT 10.0; Win64; x64) AppleWebKit/537.36 (KHTML, like Gecko) Chrome/93.0.4577.82 Safari/537.36" etag="xMa5W3iEeHV_nBlUoYUA" version="15.2.4" type="github">
  <diagram id="R2lEEEUBdFMjLlhIrx00" name="Page-1">
    <mxGraphModel dx="782" dy="738" grid="1" gridSize="10" guides="1" tooltips="1" connect="1" arrows="1" fold="1" page="1" pageScale="1" pageWidth="850" pageHeight="1100" math="0" shadow="0" extFonts="Permanent Marker^https://fonts.googleapis.com/css?family=Permanent+Marker">
      <root>
        <mxCell id="0" />
        <mxCell id="1" parent="0" />
        <mxCell id="rRM4tzhFzR8lKg1zkFQO-1" value="User" style="shape=table;startSize=30;container=1;collapsible=1;childLayout=tableLayout;fixedRows=1;rowLines=0;fontStyle=1;align=center;resizeLast=1;" vertex="1" parent="1">
          <mxGeometry x="30" y="50" width="130" height="220" as="geometry" />
        </mxCell>
        <mxCell id="rRM4tzhFzR8lKg1zkFQO-2" value="" style="shape=partialRectangle;collapsible=0;dropTarget=0;pointerEvents=0;fillColor=none;top=0;left=0;bottom=1;right=0;points=[[0,0.5],[1,0.5]];portConstraint=eastwest;" vertex="1" parent="rRM4tzhFzR8lKg1zkFQO-1">
          <mxGeometry y="30" width="130" height="30" as="geometry" />
        </mxCell>
        <mxCell id="rRM4tzhFzR8lKg1zkFQO-3" value="PK" style="shape=partialRectangle;connectable=0;fillColor=none;top=0;left=0;bottom=0;right=0;fontStyle=1;overflow=hidden;" vertex="1" parent="rRM4tzhFzR8lKg1zkFQO-2">
          <mxGeometry width="30" height="30" as="geometry" />
        </mxCell>
        <mxCell id="rRM4tzhFzR8lKg1zkFQO-4" value="UserID" style="shape=partialRectangle;connectable=0;fillColor=none;top=0;left=0;bottom=0;right=0;align=left;spacingLeft=6;fontStyle=5;overflow=hidden;" vertex="1" parent="rRM4tzhFzR8lKg1zkFQO-2">
          <mxGeometry x="30" width="100" height="30" as="geometry" />
        </mxCell>
        <mxCell id="rRM4tzhFzR8lKg1zkFQO-5" value="" style="shape=partialRectangle;collapsible=0;dropTarget=0;pointerEvents=0;fillColor=none;top=0;left=0;bottom=0;right=0;points=[[0,0.5],[1,0.5]];portConstraint=eastwest;" vertex="1" parent="rRM4tzhFzR8lKg1zkFQO-1">
          <mxGeometry y="60" width="130" height="30" as="geometry" />
        </mxCell>
        <mxCell id="rRM4tzhFzR8lKg1zkFQO-6" value="" style="shape=partialRectangle;connectable=0;fillColor=none;top=0;left=0;bottom=0;right=0;editable=1;overflow=hidden;" vertex="1" parent="rRM4tzhFzR8lKg1zkFQO-5">
          <mxGeometry width="30" height="30" as="geometry" />
        </mxCell>
        <mxCell id="rRM4tzhFzR8lKg1zkFQO-7" value="FirstName" style="shape=partialRectangle;connectable=0;fillColor=none;top=0;left=0;bottom=0;right=0;align=left;spacingLeft=6;overflow=hidden;" vertex="1" parent="rRM4tzhFzR8lKg1zkFQO-5">
          <mxGeometry x="30" width="100" height="30" as="geometry" />
        </mxCell>
        <mxCell id="rRM4tzhFzR8lKg1zkFQO-8" value="" style="shape=partialRectangle;collapsible=0;dropTarget=0;pointerEvents=0;fillColor=none;top=0;left=0;bottom=0;right=0;points=[[0,0.5],[1,0.5]];portConstraint=eastwest;" vertex="1" parent="rRM4tzhFzR8lKg1zkFQO-1">
          <mxGeometry y="90" width="130" height="30" as="geometry" />
        </mxCell>
        <mxCell id="rRM4tzhFzR8lKg1zkFQO-9" value="" style="shape=partialRectangle;connectable=0;fillColor=none;top=0;left=0;bottom=0;right=0;editable=1;overflow=hidden;" vertex="1" parent="rRM4tzhFzR8lKg1zkFQO-8">
          <mxGeometry width="30" height="30" as="geometry" />
        </mxCell>
        <mxCell id="rRM4tzhFzR8lKg1zkFQO-10" value="LastName" style="shape=partialRectangle;connectable=0;fillColor=none;top=0;left=0;bottom=0;right=0;align=left;spacingLeft=6;overflow=hidden;" vertex="1" parent="rRM4tzhFzR8lKg1zkFQO-8">
          <mxGeometry x="30" width="100" height="30" as="geometry" />
        </mxCell>
        <mxCell id="rRM4tzhFzR8lKg1zkFQO-11" value="" style="shape=partialRectangle;collapsible=0;dropTarget=0;pointerEvents=0;fillColor=none;top=0;left=0;bottom=0;right=0;points=[[0,0.5],[1,0.5]];portConstraint=eastwest;" vertex="1" parent="rRM4tzhFzR8lKg1zkFQO-1">
          <mxGeometry y="120" width="130" height="30" as="geometry" />
        </mxCell>
        <mxCell id="rRM4tzhFzR8lKg1zkFQO-12" value="" style="shape=partialRectangle;connectable=0;fillColor=none;top=0;left=0;bottom=0;right=0;editable=1;overflow=hidden;" vertex="1" parent="rRM4tzhFzR8lKg1zkFQO-11">
          <mxGeometry width="30" height="30" as="geometry" />
        </mxCell>
        <mxCell id="rRM4tzhFzR8lKg1zkFQO-13" value="Email" style="shape=partialRectangle;connectable=0;fillColor=none;top=0;left=0;bottom=0;right=0;align=left;spacingLeft=6;overflow=hidden;" vertex="1" parent="rRM4tzhFzR8lKg1zkFQO-11">
          <mxGeometry x="30" width="100" height="30" as="geometry" />
        </mxCell>
        <mxCell id="rRM4tzhFzR8lKg1zkFQO-14" style="shape=partialRectangle;collapsible=0;dropTarget=0;pointerEvents=0;fillColor=none;top=0;left=0;bottom=0;right=0;points=[[0,0.5],[1,0.5]];portConstraint=eastwest;" vertex="1" parent="rRM4tzhFzR8lKg1zkFQO-1">
          <mxGeometry y="150" width="130" height="30" as="geometry" />
        </mxCell>
        <mxCell id="rRM4tzhFzR8lKg1zkFQO-15" style="shape=partialRectangle;connectable=0;fillColor=none;top=0;left=0;bottom=0;right=0;editable=1;overflow=hidden;" vertex="1" parent="rRM4tzhFzR8lKg1zkFQO-14">
          <mxGeometry width="30" height="30" as="geometry" />
        </mxCell>
        <mxCell id="rRM4tzhFzR8lKg1zkFQO-16" value="PhoneNumber    " style="shape=partialRectangle;connectable=0;fillColor=none;top=0;left=0;bottom=0;right=0;align=left;spacingLeft=6;overflow=hidden;" vertex="1" parent="rRM4tzhFzR8lKg1zkFQO-14">
          <mxGeometry x="30" width="100" height="30" as="geometry" />
        </mxCell>
        <mxCell id="rRM4tzhFzR8lKg1zkFQO-17" style="shape=partialRectangle;collapsible=0;dropTarget=0;pointerEvents=0;fillColor=none;top=0;left=0;bottom=0;right=0;points=[[0,0.5],[1,0.5]];portConstraint=eastwest;" vertex="1" parent="rRM4tzhFzR8lKg1zkFQO-1">
          <mxGeometry y="180" width="130" height="30" as="geometry" />
        </mxCell>
        <mxCell id="rRM4tzhFzR8lKg1zkFQO-18" style="shape=partialRectangle;connectable=0;fillColor=none;top=0;left=0;bottom=0;right=0;editable=1;overflow=hidden;" vertex="1" parent="rRM4tzhFzR8lKg1zkFQO-17">
          <mxGeometry width="30" height="30" as="geometry" />
        </mxCell>
        <mxCell id="rRM4tzhFzR8lKg1zkFQO-19" value="Address" style="shape=partialRectangle;connectable=0;fillColor=none;top=0;left=0;bottom=0;right=0;align=left;spacingLeft=6;overflow=hidden;" vertex="1" parent="rRM4tzhFzR8lKg1zkFQO-17">
          <mxGeometry x="30" width="100" height="30" as="geometry" />
        </mxCell>
        <mxCell id="rRM4tzhFzR8lKg1zkFQO-20" value="Loan" style="shape=table;startSize=30;container=1;collapsible=1;childLayout=tableLayout;fixedRows=1;rowLines=0;fontStyle=1;align=center;resizeLast=1;" vertex="1" parent="1">
          <mxGeometry x="230" y="310" width="120" height="190" as="geometry" />
        </mxCell>
        <mxCell id="rRM4tzhFzR8lKg1zkFQO-21" value="" style="shape=partialRectangle;collapsible=0;dropTarget=0;pointerEvents=0;fillColor=none;top=0;left=0;bottom=1;right=0;points=[[0,0.5],[1,0.5]];portConstraint=eastwest;" vertex="1" parent="rRM4tzhFzR8lKg1zkFQO-20">
          <mxGeometry y="30" width="120" height="30" as="geometry" />
        </mxCell>
        <mxCell id="rRM4tzhFzR8lKg1zkFQO-22" value="PK" style="shape=partialRectangle;connectable=0;fillColor=none;top=0;left=0;bottom=0;right=0;fontStyle=1;overflow=hidden;" vertex="1" parent="rRM4tzhFzR8lKg1zkFQO-21">
          <mxGeometry width="30" height="30" as="geometry" />
        </mxCell>
        <mxCell id="rRM4tzhFzR8lKg1zkFQO-23" value="LoanID" style="shape=partialRectangle;connectable=0;fillColor=none;top=0;left=0;bottom=0;right=0;align=left;spacingLeft=6;fontStyle=5;overflow=hidden;" vertex="1" parent="rRM4tzhFzR8lKg1zkFQO-21">
          <mxGeometry x="30" width="90" height="30" as="geometry" />
        </mxCell>
        <mxCell id="rRM4tzhFzR8lKg1zkFQO-24" value="" style="shape=partialRectangle;collapsible=0;dropTarget=0;pointerEvents=0;fillColor=none;top=0;left=0;bottom=0;right=0;points=[[0,0.5],[1,0.5]];portConstraint=eastwest;" vertex="1" parent="rRM4tzhFzR8lKg1zkFQO-20">
          <mxGeometry y="60" width="120" height="30" as="geometry" />
        </mxCell>
        <mxCell id="rRM4tzhFzR8lKg1zkFQO-25" value="FK" style="shape=partialRectangle;connectable=0;fillColor=none;top=0;left=0;bottom=0;right=0;editable=1;overflow=hidden;" vertex="1" parent="rRM4tzhFzR8lKg1zkFQO-24">
          <mxGeometry width="30" height="30" as="geometry" />
        </mxCell>
        <mxCell id="rRM4tzhFzR8lKg1zkFQO-26" value="UserID" style="shape=partialRectangle;connectable=0;fillColor=none;top=0;left=0;bottom=0;right=0;align=left;spacingLeft=6;overflow=hidden;" vertex="1" parent="rRM4tzhFzR8lKg1zkFQO-24">
          <mxGeometry x="30" width="90" height="30" as="geometry" />
        </mxCell>
        <mxCell id="rRM4tzhFzR8lKg1zkFQO-27" value="" style="shape=partialRectangle;collapsible=0;dropTarget=0;pointerEvents=0;fillColor=none;top=0;left=0;bottom=0;right=0;points=[[0,0.5],[1,0.5]];portConstraint=eastwest;" vertex="1" parent="rRM4tzhFzR8lKg1zkFQO-20">
          <mxGeometry y="90" width="120" height="30" as="geometry" />
        </mxCell>
        <mxCell id="rRM4tzhFzR8lKg1zkFQO-28" value="FK" style="shape=partialRectangle;connectable=0;fillColor=none;top=0;left=0;bottom=0;right=0;editable=1;overflow=hidden;" vertex="1" parent="rRM4tzhFzR8lKg1zkFQO-27">
          <mxGeometry width="30" height="30" as="geometry" />
        </mxCell>
        <mxCell id="rRM4tzhFzR8lKg1zkFQO-29" value="BookID" style="shape=partialRectangle;connectable=0;fillColor=none;top=0;left=0;bottom=0;right=0;align=left;spacingLeft=6;overflow=hidden;" vertex="1" parent="rRM4tzhFzR8lKg1zkFQO-27">
          <mxGeometry x="30" width="90" height="30" as="geometry" />
        </mxCell>
        <mxCell id="rRM4tzhFzR8lKg1zkFQO-30" value="" style="shape=partialRectangle;collapsible=0;dropTarget=0;pointerEvents=0;fillColor=none;top=0;left=0;bottom=0;right=0;points=[[0,0.5],[1,0.5]];portConstraint=eastwest;" vertex="1" parent="rRM4tzhFzR8lKg1zkFQO-20">
          <mxGeometry y="120" width="120" height="30" as="geometry" />
        </mxCell>
        <mxCell id="rRM4tzhFzR8lKg1zkFQO-31" value="" style="shape=partialRectangle;connectable=0;fillColor=none;top=0;left=0;bottom=0;right=0;editable=1;overflow=hidden;" vertex="1" parent="rRM4tzhFzR8lKg1zkFQO-30">
          <mxGeometry width="30" height="30" as="geometry" />
        </mxCell>
        <mxCell id="rRM4tzhFzR8lKg1zkFQO-32" value="LoanDate" style="shape=partialRectangle;connectable=0;fillColor=none;top=0;left=0;bottom=0;right=0;align=left;spacingLeft=6;overflow=hidden;" vertex="1" parent="rRM4tzhFzR8lKg1zkFQO-30">
          <mxGeometry x="30" width="90" height="30" as="geometry" />
        </mxCell>
        <mxCell id="rRM4tzhFzR8lKg1zkFQO-33" style="shape=partialRectangle;collapsible=0;dropTarget=0;pointerEvents=0;fillColor=none;top=0;left=0;bottom=0;right=0;points=[[0,0.5],[1,0.5]];portConstraint=eastwest;" vertex="1" parent="rRM4tzhFzR8lKg1zkFQO-20">
          <mxGeometry y="150" width="120" height="30" as="geometry" />
        </mxCell>
        <mxCell id="rRM4tzhFzR8lKg1zkFQO-34" style="shape=partialRectangle;connectable=0;fillColor=none;top=0;left=0;bottom=0;right=0;editable=1;overflow=hidden;" vertex="1" parent="rRM4tzhFzR8lKg1zkFQO-33">
          <mxGeometry width="30" height="30" as="geometry" />
        </mxCell>
        <mxCell id="rRM4tzhFzR8lKg1zkFQO-35" value="ReturnDate" style="shape=partialRectangle;connectable=0;fillColor=none;top=0;left=0;bottom=0;right=0;align=left;spacingLeft=6;overflow=hidden;" vertex="1" parent="rRM4tzhFzR8lKg1zkFQO-33">
          <mxGeometry x="30" width="90" height="30" as="geometry" />
        </mxCell>
        <mxCell id="rRM4tzhFzR8lKg1zkFQO-36" value="Book" style="shape=table;startSize=30;container=1;collapsible=1;childLayout=tableLayout;fixedRows=1;rowLines=0;fontStyle=1;align=center;resizeLast=1;" vertex="1" parent="1">
          <mxGeometry x="410" y="30" width="130" height="280" as="geometry" />
        </mxCell>
        <mxCell id="rRM4tzhFzR8lKg1zkFQO-37" value="" style="shape=partialRectangle;collapsible=0;dropTarget=0;pointerEvents=0;fillColor=none;top=0;left=0;bottom=1;right=0;points=[[0,0.5],[1,0.5]];portConstraint=eastwest;" vertex="1" parent="rRM4tzhFzR8lKg1zkFQO-36">
          <mxGeometry y="30" width="130" height="30" as="geometry" />
        </mxCell>
        <mxCell id="rRM4tzhFzR8lKg1zkFQO-38" value="PK" style="shape=partialRectangle;connectable=0;fillColor=none;top=0;left=0;bottom=0;right=0;fontStyle=1;overflow=hidden;" vertex="1" parent="rRM4tzhFzR8lKg1zkFQO-37">
          <mxGeometry width="30" height="30" as="geometry" />
        </mxCell>
        <mxCell id="rRM4tzhFzR8lKg1zkFQO-39" value="BookID" style="shape=partialRectangle;connectable=0;fillColor=none;top=0;left=0;bottom=0;right=0;align=left;spacingLeft=6;fontStyle=5;overflow=hidden;" vertex="1" parent="rRM4tzhFzR8lKg1zkFQO-37">
          <mxGeometry x="30" width="100" height="30" as="geometry" />
        </mxCell>
        <mxCell id="rRM4tzhFzR8lKg1zkFQO-40" value="" style="shape=partialRectangle;collapsible=0;dropTarget=0;pointerEvents=0;fillColor=none;top=0;left=0;bottom=0;right=0;points=[[0,0.5],[1,0.5]];portConstraint=eastwest;" vertex="1" parent="rRM4tzhFzR8lKg1zkFQO-36">
          <mxGeometry y="60" width="130" height="30" as="geometry" />
        </mxCell>
        <mxCell id="rRM4tzhFzR8lKg1zkFQO-41" value="" style="shape=partialRectangle;connectable=0;fillColor=none;top=0;left=0;bottom=0;right=0;editable=1;overflow=hidden;" vertex="1" parent="rRM4tzhFzR8lKg1zkFQO-40">
          <mxGeometry width="30" height="30" as="geometry" />
        </mxCell>
        <mxCell id="rRM4tzhFzR8lKg1zkFQO-42" value="Title" style="shape=partialRectangle;connectable=0;fillColor=none;top=0;left=0;bottom=0;right=0;align=left;spacingLeft=6;overflow=hidden;" vertex="1" parent="rRM4tzhFzR8lKg1zkFQO-40">
          <mxGeometry x="30" width="100" height="30" as="geometry" />
        </mxCell>
        <mxCell id="rRM4tzhFzR8lKg1zkFQO-43" value="" style="shape=partialRectangle;collapsible=0;dropTarget=0;pointerEvents=0;fillColor=none;top=0;left=0;bottom=0;right=0;points=[[0,0.5],[1,0.5]];portConstraint=eastwest;" vertex="1" parent="rRM4tzhFzR8lKg1zkFQO-36">
          <mxGeometry y="90" width="130" height="30" as="geometry" />
        </mxCell>
        <mxCell id="rRM4tzhFzR8lKg1zkFQO-44" value="" style="shape=partialRectangle;connectable=0;fillColor=none;top=0;left=0;bottom=0;right=0;editable=1;overflow=hidden;" vertex="1" parent="rRM4tzhFzR8lKg1zkFQO-43">
          <mxGeometry width="30" height="30" as="geometry" />
        </mxCell>
        <mxCell id="rRM4tzhFzR8lKg1zkFQO-45" value="Author" style="shape=partialRectangle;connectable=0;fillColor=none;top=0;left=0;bottom=0;right=0;align=left;spacingLeft=6;overflow=hidden;" vertex="1" parent="rRM4tzhFzR8lKg1zkFQO-43">
          <mxGeometry x="30" width="100" height="30" as="geometry" />
        </mxCell>
        <mxCell id="rRM4tzhFzR8lKg1zkFQO-46" value="" style="shape=partialRectangle;collapsible=0;dropTarget=0;pointerEvents=0;fillColor=none;top=0;left=0;bottom=0;right=0;points=[[0,0.5],[1,0.5]];portConstraint=eastwest;" vertex="1" parent="rRM4tzhFzR8lKg1zkFQO-36">
          <mxGeometry y="120" width="130" height="30" as="geometry" />
        </mxCell>
        <mxCell id="rRM4tzhFzR8lKg1zkFQO-47" value="" style="shape=partialRectangle;connectable=0;fillColor=none;top=0;left=0;bottom=0;right=0;editable=1;overflow=hidden;" vertex="1" parent="rRM4tzhFzR8lKg1zkFQO-46">
          <mxGeometry width="30" height="30" as="geometry" />
        </mxCell>
        <mxCell id="rRM4tzhFzR8lKg1zkFQO-48" value="Year" style="shape=partialRectangle;connectable=0;fillColor=none;top=0;left=0;bottom=0;right=0;align=left;spacingLeft=6;overflow=hidden;" vertex="1" parent="rRM4tzhFzR8lKg1zkFQO-46">
          <mxGeometry x="30" width="100" height="30" as="geometry" />
        </mxCell>
        <mxCell id="rRM4tzhFzR8lKg1zkFQO-49" style="shape=partialRectangle;collapsible=0;dropTarget=0;pointerEvents=0;fillColor=none;top=0;left=0;bottom=0;right=0;points=[[0,0.5],[1,0.5]];portConstraint=eastwest;" vertex="1" parent="rRM4tzhFzR8lKg1zkFQO-36">
          <mxGeometry y="150" width="130" height="30" as="geometry" />
        </mxCell>
        <mxCell id="rRM4tzhFzR8lKg1zkFQO-50" style="shape=partialRectangle;connectable=0;fillColor=none;top=0;left=0;bottom=0;right=0;editable=1;overflow=hidden;" vertex="1" parent="rRM4tzhFzR8lKg1zkFQO-49">
          <mxGeometry width="30" height="30" as="geometry" />
        </mxCell>
        <mxCell id="rRM4tzhFzR8lKg1zkFQO-51" value="Description    " style="shape=partialRectangle;connectable=0;fillColor=none;top=0;left=0;bottom=0;right=0;align=left;spacingLeft=6;overflow=hidden;" vertex="1" parent="rRM4tzhFzR8lKg1zkFQO-49">
          <mxGeometry x="30" width="100" height="30" as="geometry" />
        </mxCell>
        <mxCell id="rRM4tzhFzR8lKg1zkFQO-52" style="shape=partialRectangle;collapsible=0;dropTarget=0;pointerEvents=0;fillColor=none;top=0;left=0;bottom=0;right=0;points=[[0,0.5],[1,0.5]];portConstraint=eastwest;" vertex="1" parent="rRM4tzhFzR8lKg1zkFQO-36">
          <mxGeometry y="180" width="130" height="30" as="geometry" />
        </mxCell>
        <mxCell id="rRM4tzhFzR8lKg1zkFQO-53" style="shape=partialRectangle;connectable=0;fillColor=none;top=0;left=0;bottom=0;right=0;editable=1;overflow=hidden;" vertex="1" parent="rRM4tzhFzR8lKg1zkFQO-52">
          <mxGeometry width="30" height="30" as="geometry" />
        </mxCell>
        <mxCell id="rRM4tzhFzR8lKg1zkFQO-54" value="Genre" style="shape=partialRectangle;connectable=0;fillColor=none;top=0;left=0;bottom=0;right=0;align=left;spacingLeft=6;overflow=hidden;" vertex="1" parent="rRM4tzhFzR8lKg1zkFQO-52">
          <mxGeometry x="30" width="100" height="30" as="geometry" />
        </mxCell>
        <mxCell id="rRM4tzhFzR8lKg1zkFQO-55" style="shape=partialRectangle;collapsible=0;dropTarget=0;pointerEvents=0;fillColor=none;top=0;left=0;bottom=0;right=0;points=[[0,0.5],[1,0.5]];portConstraint=eastwest;" vertex="1" parent="rRM4tzhFzR8lKg1zkFQO-36">
          <mxGeometry y="210" width="130" height="30" as="geometry" />
        </mxCell>
        <mxCell id="rRM4tzhFzR8lKg1zkFQO-56" style="shape=partialRectangle;connectable=0;fillColor=none;top=0;left=0;bottom=0;right=0;editable=1;overflow=hidden;" vertex="1" parent="rRM4tzhFzR8lKg1zkFQO-55">
          <mxGeometry width="30" height="30" as="geometry" />
        </mxCell>
        <mxCell id="rRM4tzhFzR8lKg1zkFQO-57" value="Price" style="shape=partialRectangle;connectable=0;fillColor=none;top=0;left=0;bottom=0;right=0;align=left;spacingLeft=6;overflow=hidden;" vertex="1" parent="rRM4tzhFzR8lKg1zkFQO-55">
          <mxGeometry x="30" width="100" height="30" as="geometry" />
        </mxCell>
        <mxCell id="rRM4tzhFzR8lKg1zkFQO-58" style="shape=partialRectangle;collapsible=0;dropTarget=0;pointerEvents=0;fillColor=none;top=0;left=0;bottom=0;right=0;points=[[0,0.5],[1,0.5]];portConstraint=eastwest;" vertex="1" parent="rRM4tzhFzR8lKg1zkFQO-36">
          <mxGeometry y="240" width="130" height="30" as="geometry" />
        </mxCell>
        <mxCell id="rRM4tzhFzR8lKg1zkFQO-59" style="shape=partialRectangle;connectable=0;fillColor=none;top=0;left=0;bottom=0;right=0;editable=1;overflow=hidden;" vertex="1" parent="rRM4tzhFzR8lKg1zkFQO-58">
          <mxGeometry width="30" height="30" as="geometry" />
        </mxCell>
        <mxCell id="rRM4tzhFzR8lKg1zkFQO-60" value="PageNumber" style="shape=partialRectangle;connectable=0;fillColor=none;top=0;left=0;bottom=0;right=0;align=left;spacingLeft=6;overflow=hidden;" vertex="1" parent="rRM4tzhFzR8lKg1zkFQO-58">
          <mxGeometry x="30" width="100" height="30" as="geometry" />
        </mxCell>
      </root>
    </mxGraphModel>
  </diagram>
</mxfile>
